<svg width="1500" height="760" viewBox="0 0 1500 760" fill="none" xmlns="http://www.w3.org/2000/svg">
  <rect width="1500" height="760" rx="28" fill="#F8FAFC"/>
  <defs>
    <marker id="arrow" markerWidth="10" markerHeight="10" refX="8" refY="3" orient="auto">
      <path d="M0,0 L0,6 L9,3 z" fill="#6B7280"/>
    </marker>
  </defs>
  <text x="750" y="82" text-anchor="middle" font-family="Arial, sans-serif" font-size="34" font-weight="700" fill="#111827">MENTOR System Overview</text>
  <text x="750" y="122" text-anchor="middle" font-family="Arial, sans-serif" font-size="19" fill="#6B7280">Replace this placeholder with your final architecture figure</text>

  <rect x="95" y="235" width="260" height="120" rx="22" fill="#FFFFFF" stroke="#CBD5E1" stroke-width="2"/>
  <text x="225" y="285" text-anchor="middle" font-family="Arial, sans-serif" font-size="24" font-weight="700" fill="#1F2937">Language</text>
  <text x="225" y="318" text-anchor="middle" font-family="Arial, sans-serif" font-size="24" font-weight="700" fill="#1F2937">Mission</text>

  <rect x="455" y="215" width="285" height="160" rx="22" fill="#FFF7ED" stroke="#FDBA74" stroke-width="2"/>
  <text x="597" y="278" text-anchor="middle" font-family="Arial, sans-serif" font-size="23" font-weight="700" fill="#7C2D12">Structured Mission</text>
  <text x="597" y="314" text-anchor="middle" font-family="Arial, sans-serif" font-size="23" font-weight="700" fill="#7C2D12">Representation</text>

  <rect x="850" y="190" width="320" height="210" rx="26" fill="#EFF6FF" stroke="#93C5FD" stroke-width="2"/>
  <text x="1010" y="247" text-anchor="middle" font-family="Arial, sans-serif" font-size="25" font-weight="700" fill="#1E3A8A">Guarded Mission</text>
  <text x="1010" y="282" text-anchor="middle" font-family="Arial, sans-serif" font-size="25" font-weight="700" fill="#1E3A8A">Executive</text>
  <rect x="890" y="315" width="240" height="44" rx="12" fill="#DBEAFE"/>
  <text x="1010" y="344" text-anchor="middle" font-family="Arial, sans-serif" font-size="17" fill="#1E40AF">Reasoning · Gating · Dispatch</text>

  <rect x="520" y="520" width="460" height="115" rx="24" fill="#F0FDF4" stroke="#86EFAC" stroke-width="2"/>
  <text x="750" y="568" text-anchor="middle" font-family="Arial, sans-serif" font-size="24" font-weight="700" fill="#14532D">Reusable UAV Skill Library</text>
  <text x="750" y="605" text-anchor="middle" font-family="Arial, sans-serif" font-size="18" fill="#166534">Search · Navigate · Observe · Localize · Return · Recover</text>

  <rect x="1205" y="235" width="220" height="120" rx="22" fill="#FFFFFF" stroke="#CBD5E1" stroke-width="2"/>
  <text x="1315" y="285" text-anchor="middle" font-family="Arial, sans-serif" font-size="24" font-weight="700" fill="#1F2937">Real-World</text>
  <text x="1315" y="318" text-anchor="middle" font-family="Arial, sans-serif" font-size="24" font-weight="700" fill="#1F2937">UAV</text>

  <path d="M360 295H440" stroke="#6B7280" stroke-width="3" marker-end="url(#arrow)"/>
  <path d="M745 295H835" stroke="#6B7280" stroke-width="3" marker-end="url(#arrow)"/>
  <path d="M1175 295H1192" stroke="#6B7280" stroke-width="3" marker-end="url(#arrow)"/>
  <path d="M1010 405V510" stroke="#6B7280" stroke-width="3" marker-end="url(#arrow)"/>
  <path d="M980 575C1140 575 1250 485 1295 365" stroke="#6B7280" stroke-width="3" marker-end="url(#arrow)"/>
</svg>
